<svg xmlns="http://www.w3.org/2000/svg" width="665" height="694.566" viewBox="0 0 665 694.566">
  <g id="Contour_et_background_quête" data-name="Contour et background quête" transform="translate(0 0)">
    <rect id="Rectangle_2" data-name="Rectangle 2" width="618" height="617" transform="translate(25 42.199)" fill="#fff" style="mix-blend-mode: exclusion;isolation: isolate"/>
    <path id="Tracé_253" data-name="Tracé 253" d="M648.31,655.746H24.25V29.11H648.31ZM29.72,648.36H642.84V36.507H29.72Z" transform="translate(0 10.2)" fill="#121212"/>
    <path id="Tracé_254" data-name="Tracé 254" d="M840.14,406.727v249.06l8.25-20.685V575.884l8.44-8.637V489.61L845.11,477.6V207.284l11.72-12.007V117.639l-8.44-8.647V49.785l-8.25-20.7Z" transform="translate(-191.83 10.2)" fill="#121212"/>
    <path id="Tracé_255" data-name="Tracé 255" d="M21.17,503.25l-3.46,3.46v36.47l-5.4,5.4v87.03L23.9,647.2H69.31l11.88,11.89h51.47l10.87-10.88H199.6l10.22,10.21H334.08l14.13-13.99H24.33l-3.16-3.7Z" transform="translate(0 25.196)" fill="#121212"/>
    <path id="Tracé_256" data-name="Tracé 256" d="M81.31,668.04H135.4l12.22-12.22H195.7l10.62,10.62h27.84l-4.61,4.6H83.62Z" transform="translate(0 20.786)" fill="#121212"/>
    <path id="Tracé_257" data-name="Tracé 257" d="M21.17,167.79l-3.46-3.45V127.87l-5.4-5.4V35.43L23.9,23.84H69.31L81.19,11.96h51.47l10.87,10.88H199.6l10.22-10.22H331.06l17.15,13.99H24.33l-3.16,3.71Z" transform="translate(0 10.2)" fill="#121212"/>
    <path id="Tracé_258" data-name="Tracé 258" d="M81.31,3H135.4l12.22,12.22H195.7L206.32,4.61h27.84L229.55,0H83.62Z" transform="translate(0 14.551)" fill="#121212"/>
    <path id="Tracé_263" data-name="Tracé 263" d="M543.02,658.42l12.288-13.91,65.68-.11-9.115,13.75Z" transform="translate(-145.018 25.196)" fill="#121212"/>
    <path id="Tracé_265" data-name="Tracé 265" d="M685.913,669.37H240.37v-1.6h444.9l15.763-16.19H811.085v1.6H701.676Z" transform="translate(-183.115 25.196)" fill="#121212"/>
    <path id="Tracé_266" data-name="Tracé 266" d="M826.94,648.37a4,4,0,1,0,4,4A4,4,0,0,0,826.94,648.37Z" transform="translate(-198.561 25.196)" fill="#121212"/>
    <path id="Tracé_267" data-name="Tracé 267" d="M69.3,656.62H19.56l-.24-.23L0,637.06V548.18l9.94-9.94V516.85h1.6V538.9L1.6,548.84V636.4l18.62,18.62H69.3Z" transform="translate(0 25.196)" fill="#121212"/>
    <path id="Tracé_268" data-name="Tracé 268" d="M10.87,513.15a4,4,0,1,0,4,4A4,4,0,0,0,10.87,513.15Z" transform="translate(0 21.806)" fill="#121212"/>
    <path id="Tracé_269" data-name="Tracé 269" d="M68.36,651.81a4,4,0,1,0,4,4A4,4,0,0,0,68.36,651.81Z" transform="translate(0 25.196)" fill="#121212"/>
    <path id="Tracé_271" data-name="Tracé 271" d="M783.673,18.59H392.843L377.836,2.4H240.37V.8H378.448l15.016,16.19H783.673Z" transform="translate(-155.703 -0.8)" fill="#121212"/>
    <path id="Tracé_272" data-name="Tracé 272" d="M826.94,21.8a4,4,0,1,1,4-4A4,4,0,0,1,826.94,21.8Z" transform="translate(-194.971 -1.241)" fill="#121212"/>
    <path id="Tracé_273" data-name="Tracé 273" d="M11.54,153.32H9.94V131.94L0,121.99V33.11L19.56,13.55H69.3v1.6H20.22L1.6,33.77v87.56l9.94,9.94Z" transform="translate(0 10.2)" fill="#121212"/>
    <path id="Tracé_274" data-name="Tracé 274" d="M10.87,157a4,4,0,1,1,4-4A4,4,0,0,1,10.87,157Z" transform="translate(0 13.57)" fill="#121212"/>
    <path id="Tracé_275" data-name="Tracé 275" d="M68.36,18.36a4,4,0,1,1,4-4A4,4,0,0,1,68.36,18.36Z" transform="translate(0 10.2)" fill="#121212"/>
    <rect id="Rectangle_139" data-name="Rectangle 139" width="2.42" height="316.44" transform="translate(17.82 192.893)" fill="#121212"/>
    <path id="Tracé_299" data-name="Tracé 299" d="M442.1,658.42,456,644.4h43.41l-13.76,13.75Z" transform="translate(-94.711 25.197)" fill="#121212"/>
  </g>
</svg>
