<?xml version="1.0" standalone="no"?>
<!DOCTYPE svg PUBLIC "-//W3C//DTD SVG 20010904//EN"
 "http://www.w3.org/TR/2001/REC-SVG-20010904/DTD/svg10.dtd">
<svg version="1.0" xmlns="http://www.w3.org/2000/svg"
 width="1280.000000pt" height="640.000000pt" viewBox="0 0 1280.000000 640.000000"
 preserveAspectRatio="xMidYMid meet">
<metadata>
Created by potrace 1.15, written by Peter Selinger 2001-2017
</metadata>
<g transform="translate(0.000000,640.000000) scale(0.100000,-0.100000)"
fill="#000000" stroke="none">
<path d="M10475 5890 c-27 -11 -71 -60 -79 -87 -5 -16 12 -71 55 -179 39 -99
58 -159 51 -163 -6 -3 -283 -89 -616 -190 l-606 -183 -21 26 c-28 35 -58 34
-196 -9 -117 -37 -133 -49 -133 -99 0 -15 -7 -27 -17 -30 -152 -46 -2513 -761
-2630 -797 -90 -27 -237 -71 -328 -99 -91 -27 -239 -72 -330 -100 -91 -27
-240 -73 -332 -101 -214 -64 -454 -137 -660 -200 -90 -27 -236 -71 -325 -98
-90 -27 -239 -73 -333 -101 -93 -28 -213 -65 -266 -81 l-96 -30 -37 37 c-34
34 -40 36 -86 32 -42 -4 -52 -2 -71 18 -67 71 -209 13 -209 -85 0 -24 9 -52
24 -73 l24 -35 -142 -43 c-343 -104 -351 -107 -349 -121 1 -8 -23 -30 -54 -49
-31 -20 -97 -80 -148 -137 -155 -171 -354 -355 -465 -430 -45 -30 -137 -60
-1720 -555 -124 -39 -246 -81 -271 -94 -53 -26 -109 -86 -109 -115 0 -30 31
-85 104 -182 171 -229 301 -483 430 -843 27 -73 59 -143 72 -157 32 -34 70
-35 136 -2 59 29 72 40 523 395 1458 1150 1480 1167 1546 1168 13 0 83 18 154
40 515 158 667 202 675 197 6 -4 10 -12 10 -20 0 -21 50 -55 80 -55 62 0 157
-39 209 -86 96 -87 99 -168 11 -354 -27 -58 -56 -132 -64 -165 -22 -86 -47
-350 -40 -407 12 -92 35 -104 329 -178 179 -45 268 -51 325 -22 34 16 35 19
32 67 -9 167 -6 524 5 561 7 28 8 55 2 80 -4 22 -9 54 -9 72 0 39 46 141 67
149 8 3 74 -10 147 -30 l132 -36 179 43 c99 24 192 48 206 54 65 26 119 97
133 174 7 38 -24 132 -88 268 -14 30 -24 56 -22 57 5 5 323 103 334 103 5 0
29 -41 53 -90 33 -70 46 -89 58 -85 9 4 20 7 25 8 8 2 182 -359 446 -925 l45
-96 415 193 415 193 19 54 19 53 -237 510 c-141 301 -235 517 -232 528 2 10
-29 100 -70 199 -41 100 -73 183 -71 184 2 2 30 -6 63 -17 100 -36 90 -38 744
206 392 147 755 284 1410 532 239 91 530 201 645 245 116 44 417 157 670 252
486 183 510 193 618 263 50 31 67 48 63 59 -20 52 -18 61 15 73 46 16 59 14
59 -9 0 -11 3 -20 6 -20 17 0 84 58 84 73 0 9 2 17 5 17 3 0 81 23 173 51 92
28 240 73 330 100 89 27 235 71 325 98 89 27 237 72 329 100 92 28 173 51 180
51 7 0 21 -11 33 -25 l20 -25 165 51 c395 120 360 106 360 143 0 51 -35 170
-64 220 -15 25 -29 46 -33 46 -3 0 -96 -28 -207 -61 -110 -34 -225 -68 -254
-77 -37 -11 -57 -23 -66 -40 -12 -23 -77 -45 -682 -228 -368 -112 -671 -204
-674 -204 -3 0 -25 66 -49 148 -24 81 -50 154 -57 162 -7 8 -33 85 -59 170
-37 126 -52 160 -76 183 -30 27 -65 34 -104 17z m-5212 -3505 c62 -125 72
-159 58 -204 -18 -63 -68 -101 -168 -128 l-88 -23 -56 57 c-70 72 -99 144 -99
243 l0 69 58 16 c31 9 98 29 147 45 50 15 93 25 97 21 3 -3 27 -46 51 -96z
m-493 -60 c0 -34 42 -144 74 -191 33 -51 44 -64 84 -96 17 -15 29 -29 25 -31
-36 -20 -74 -15 -216 28 -84 26 -156 50 -160 54 -4 4 -2 54 5 111 l13 103 75
22 c97 30 100 30 100 0z"/>
</g>
</svg>
